<svg xmlns="http://www.w3.org/2000/svg" viewBox="0 0 95 36" fill-rule="nonzero" clip-rule="evenodd" stroke-linejoin="round" stroke-miterlimit="2" role="img" aria-label="Socket"><defs><linearGradient id="socket-brand-gradient" x1="0" y1="0" x2="1" y2="0"><stop offset="0%" stop-color="#ff00aa"/><stop offset="100%" stop-color="#8c50ff"/></linearGradient></defs><path data-socket-layer="shield" fill="url(#socket-brand-gradient)" d="M18.438 8.839c.462.165.767.603.762 1.094v-.001c-.04 3.585.231 8.64-.38 10.885-1.04 4.504-4.42 8.397-8.798 10.102a1.17 1.17 0 0 1-.838.005C4.518 29.148.918 24.731.18 19.801c-.059-.311-.092-.675-.13-.984-.038-.206-.049-1.14-.049-5.167 0-1.971.001-3.099.007-3.738a1.15 1.15 0 0 1 .757-1.07c2.8-1.021 5.375-1.936 8.186-2.963l.249-.09c.249-.09.519-.091.769-.004.627.218 1.595.578 2.237.806 2.022.727 4.179 1.512 6.231 2.248"/><path data-socket-layer="bolt" fill="#ffffff" d="M9.886 9.538c.192-.314.675-.178.675.19v5.85c0 .251.204.455.456.455h2.736c.285 0 .46.312.311.555l-4.909 8.038c-.192.314-.675.179-.675-.19v-5.849a.456.456 0 0 0-.456-.456H5.288a.365.365 0 0 1-.311-.554z"/><g data-socket-layer="text"><path fill="#1a1338" d="M26.69 23.738a.18.18 0 0 1 .034-.238l2.208-1.85a.19.19 0 0 1 .274.036c.799 1.086 2.098 1.716 3.337 1.716 1.278 0 2.13-.628 2.13-1.547 0-.898-.65-1.525-2.22-2.064l-1.346-.47c-2.556-.898-3.924-2.378-3.924-4.553 0-3.005 2.287-4.777 5.382-4.777 1.897 0 3.56.636 4.909 2.072a.18.18 0 0 1-.004.248l-1.893 1.952a.19.19 0 0 1-.275-.007c-.742-.816-1.679-1.215-2.715-1.215-1.098 0-2.13.471-2.13 1.413 0 .964.785 1.39 2.467 1.996l1.278.47c2.333.853 3.79 2.333 3.79 4.733-.022 2.848-2.287 4.799-5.584 4.799-2.469 0-4.554-1.043-5.718-2.714"/><path fill="#1a1338" d="M50.67 20.576c0 3.274-2.647 5.854-5.898 5.854s-5.899-2.58-5.899-5.854 2.647-5.853 5.899-5.853c3.251 0 5.898 2.579 5.898 5.853m-8.702 0c0 1.727 1.189 2.983 2.803 2.983 1.615 0 2.781-1.256 2.781-2.983s-1.166-2.982-2.78-2.982c-1.615 0-2.804 1.255-2.804 2.982"/><path fill="#1a1338" d="M62.597 23.116a.18.18 0 0 1 .074.241c-.993 1.842-2.965 3.073-5.233 3.073-3.32 0-5.943-2.467-5.943-5.854s2.624-5.853 5.943-5.853c2.268 0 4.24 1.23 5.233 3.072a.18.18 0 0 1-.074.241l-2.338 1.258a.19.19 0 0 1-.26-.085c-.478-.94-1.4-1.615-2.561-1.615-1.615 0-2.848 1.255-2.848 2.982s1.233 2.983 2.848 2.983c1.16 0 2.083-.675 2.562-1.615a.19.19 0 0 1 .259-.085z"/><path fill="#1a1338" d="M64.003 26.183a.18.18 0 0 1-.182-.182V9.545c0-.1.081-.182.182-.182h2.708c.1 0 .182.082.182.182v9.068c0 .168.208.247.32.12l3.259-3.702a.18.18 0 0 1 .137-.061h3.214c.157 0 .24.185.137.302l-4.067 4.623a.18.18 0 0 0 0 .241l5.096 5.744a.182.182 0 0 1-.136.303H71.55a.18.18 0 0 1-.136-.061l-4.202-4.738a.182.182 0 0 0-.319.12v4.497c0 .1-.081.182-.182.182z"/><path fill="#1a1338" d="M73.967 20.576c0-3.319 2.49-5.853 5.898-5.853 2.938 0 5.517 1.884 5.517 5.517 0 .236 0 .507-.03.889a.18.18 0 0 1-.18.165h-8.017a.173.173 0 0 0-.174.203c.27 1.374 1.54 2.13 2.951 2.13 1.293 0 2.256-.563 2.781-1.254a.193.193 0 0 1 .268-.043l1.991 1.483a.18.18 0 0 1 .04.248c-1.048 1.423-2.823 2.369-5.102 2.369-3.342 0-5.943-2.31-5.943-5.854m5.808-3.319c-1.08 0-2.282.521-2.657 1.733-.034.11.053.218.169.218h4.8c.115 0 .201-.106.169-.216-.342-1.176-1.401-1.735-2.48-1.735"/><path fill="#1a1338" d="M93.934 25.938c0 .079-.051.15-.128.171-.47.133-1.043.208-1.823.208-2.377 0-4.284-1.323-4.284-4.059v-4.415c0-.1-.081-.182-.182-.182h-1.9a.18.18 0 0 1-.183-.182v-2.327c0-.1.082-.182.183-.182h1.9c.1 0 .182-.082.182-.183v-2.752c0-.101.082-.183.183-.183h2.707c.101 0 .183.082.183.183v2.752c0 .101.081.183.182.183h2.797c.101 0 .183.081.183.182v2.327c0 .1-.082.182-.183.182h-2.797c-.1 0-.182.081-.182.182v3.81c0 1.368.583 1.906 1.906 1.906.382 0 .71-.04 1.006-.121.122-.034.25.055.25.182z"/></g></svg>

